<?xml version="1.0" standalone="no"?>
<!DOCTYPE svg PUBLIC "-//W3C//DTD SVG 20010904//EN"
 "http://www.w3.org/TR/2001/REC-SVG-20010904/DTD/svg10.dtd">
<svg version="1.0" xmlns="http://www.w3.org/2000/svg"
 width="240.000000pt" height="240.000000pt" viewBox="0 0 240.000000 240.000000"
 preserveAspectRatio="xMidYMid meet">
<metadata>
Created by potrace 1.16, written by Peter Selinger 2001-2019
</metadata>
<g transform="translate(0.000000,240.000000) scale(0.100000,-0.100000)"
fill="#000000" stroke="none">
<path d="M0 1200 l0 -1200 1200 0 1200 0 0 1200 0 1200 -1200 0 -1200 0 0
-1200z m882 324 c4 -3 24 7 45 23 105 83 236 111 375 82 343 -73 455 -524 190
-760 -53 -47 -128 -85 -187 -97 -22 -4 162 -9 408 -12 l448 -5 -53 -90 c-122
-206 -374 -408 -588 -469 -264 -75 -553 -55 -771 54 -115 57 -195 114 -287
204 -150 145 -244 311 -289 509 -78 343 18 709 250 955 l31 32 211 -209 c115
-116 213 -213 217 -217z"/>
<path d="M1082 1536 c-99 -32 -189 -125 -217 -224 -25 -85 -17 -202 19 -275
31 -64 99 -129 166 -161 37 -17 64 -21 150 -21 95 0 111 3 162 28 65 32 130
99 162 167 31 66 30 235 -1 302 -28 61 -110 143 -171 171 -60 27 -206 34 -270
13z"/>
</g>
</svg>
